<?xml version="1.0" encoding="utf-8"?>
<!DOCTYPE svg PUBLIC "-//W3C//DTD SVG 1.0//EN" "http://www.w3.org/TR/2001/REC-SVG-20010904/DTD/svg10.dtd">
<svg version="1.0" xmlns="http://www.w3.org/2000/svg" width="512px" height="512px" viewBox="0 0 512 512" preserveAspectRatio="xMidYMid meet">
 <g fill="#7e44a1">
  <path d="M125.9 411.9 c-0.7 -0.4 -1.5 -5.1 -2 -12.1 -1.6 -22.3 -2.9 -41.6 -3.9 -58.8 -0.6 -9.6 -1.5 -24 -2.1 -32 -1.1 -15.9 -5.4 -83.1 -6.9 -106 -0.4 -8 -1.6 -26.5 -2.6 -41.2 -1.8 -29.2 -1.7 -30.2 3.5 -29.6 2.3 0.3 2.7 0.8 3.3 5.8 0.4 3 1.4 18.3 2.3 34 0.9 15.7 2.5 42 3.5 58.5 2.8 43.8 5.9 93.6 7 112.5 0.5 9.1 1.4 22.6 2 30 0.6 7.4 1.5 18.6 1.9 24.9 0.5 6.2 0.7 11.9 0.5 12.6 -0.6 1.6 -4.8 2.5 -6.5 1.4z"/>
  <path d="M309.2 342.4 c-2.7 -1.8 -7.2 -11.5 -7.2 -15.2 0 -2 3.7 -6.3 15.8 -18.4 8.6 -8.7 16.7 -16.1 18 -16.5 3.4 -0.8 6 2.1 6.4 7.1 l0.3 4.1 3.9 -0.3 c2.9 -0.2 4.4 0.2 6.2 1.9 5.2 4.9 2.6 8.2 -20.6 26.1 -18 13.9 -18.6 14.2 -22.8 11.2z"/>
  <path d="M191.9 341.6 c-21.2 -1.1 -23.9 -1.8 -23.9 -5.5 0 -1 0.6 -2.6 1.4 -3.7 1.3 -1.7 1.2 -2.3 -0.5 -5.1 -2.9 -4.7 -1.8 -6.8 4.4 -8.9 2.9 -0.9 5.5 -2 6 -2.3 0.4 -0.4 0 -2.9 -0.9 -5.5 -1.3 -3.7 -1.4 -5.3 -0.5 -7.2 1.2 -2.7 4.5 -4.4 7.2 -3.7 0.9 0.3 7.4 5.7 14.4 12.1 7 6.5 14.8 13.2 17.2 15 2.4 1.8 4.8 4.5 5.4 5.9 1.9 5.1 -2.4 10.6 -7.9 10.1 -0.9 0 -11 -0.6 -22.3 -1.2z"/>
  <path d="M131.8 335.9 c-2.5 -1.4 -2.3 -2.2 2.1 -9.7 14.5 -24.6 19.9 -64.5 13.9 -103.7 -4.4 -29.4 -10.5 -49.5 -21.6 -70.7 -3.5 -6.7 -4.3 -9.1 -3.4 -10 0.8 -0.8 5.6 -0.8 19.9 0.1 14.7 1 21.8 1 32.3 0 7.4 -0.6 22.7 -1.2 34 -1.2 22.8 -0.1 23.2 0 56 9.6 19.4 5.7 24.9 6.2 42 4.3 17.3 -2 37.5 -2 47.6 -0.1 9.9 1.9 27.3 7 28.7 8.4 0.7 0.7 0.2 2.7 -1.7 6.6 -4.7 9.2 -3.8 18.6 4 40.5 8.4 23.6 12.4 43 14.3 68.5 0.9 12.1 1.5 15.4 4.6 24 4.3 11.9 4.6 13.4 2.2 14.9 -2.7 1.6 -4.8 -1.5 -8.6 -12.8 -3.3 -10.1 -4.3 -16.4 -6.1 -38.6 -1.3 -16.5 -4.6 -30.6 -13.4 -56.9 -2.5 -7.3 -5.1 -15.9 -5.7 -19.2 -1.1 -5.6 -0.8 -16.2 0.6 -20.6 0.9 -2.8 -0.4 -3.4 -13 -6.8 -14 -3.7 -27.6 -4.2 -49.8 -2 -9.9 1 -20.7 1.5 -24 1.2 -6.5 -0.6 -19.5 -3.9 -41.2 -10.3 l-13 -3.9 -21.5 0 c-11.8 0.1 -34.1 0.4 -49.5 0.8 -23.9 0.5 -28 0.9 -27.7 2.1 0.1 0.8 1.8 4.8 3.6 8.8 6.1 13.4 13 36.3 15.7 51.8 4.1 23.8 5.2 54.7 2.4 71.5 -2.9 17.9 -10.3 40 -16.8 50.3 -2.8 4.3 -4 4.9 -6.9 3.1z"/>
  <path d="M207.3 312.6 c-5 -4.2 -7.5 -10.8 -8.1 -21.3 -0.7 -14 2.3 -21.5 19.2 -48.1 10 -15.8 14.1 -23.2 15.1 -27.3 0.6 -2.5 0.4 -2.7 -4.3 -3.3 -5.7 -0.7 -8.2 -2.7 -6.3 -5 0.7 -0.8 3.9 -3.2 7.1 -5.3 6.1 -3.9 6.2 -4 7.5 -13 1.4 -9 10.6 -16.9 20.8 -18 6.4 -0.6 11 0.7 16.6 4.7 5.4 4 8.4 10.4 10.6 22.5 3.1 17.4 8.7 30.1 26.9 60 10.1 16.8 12.7 28.1 9 39.2 -2.1 6.2 -7.9 14.1 -10.9 14.9 -1.3 0.3 -6.3 -0.7 -11.6 -2.5 -23.9 -7.8 -46.2 -8 -71.1 -0.7 -3.2 1 -7 2.4 -8.6 3.2 -5.7 2.8 -8.6 2.8 -11.9 0z m42.7 -115.1 c0 -1.4 -0.4 -2.5 -1 -2.5 -0.5 0 -1 1.1 -1 2.5 0 1.4 0.5 2.5 1 2.5 0.6 0 1 -1.1 1 -2.5z"/>
  <path d="M103.1 126.4 c-7.8 -6.5 -2.9 -19.4 7.3 -19.4 5.3 0 10.8 5.2 10.8 10.3 0 3.7 -2.2 8.1 -5.1 10.4 -2.9 2.2 -9.6 1.6 -13 -1.3z"/>
 </g>
</svg>